# xmcd
#
# Track frame offsets:
# 150
# 15381
# 28939
# 45458
# 56976
# 73733
# 87220
# 104266
# 118175
# 129585
# 140462
# 154781
# 170911
# 195417
# 207654
# 221845
#
# Disc length: 3004 seconds
#
#
# Revision: 0
# Processed by: cddbd v1.5.2PL0 Copyright (c) Steve Scherf et al.
# Submitted via: FreeRIP 2.52 
#
DISCID=f30bba10
DTITLE=The Grand Piano Boogie Train - Bluess and Boogie Movin On
DYEAR=1900
DGENRE=Blues
TTITLE0=12.15 Mood
TTITLE1=Movin' On
TTITLE2=See' You Mum
TTITLE3=You Are My Sunshine
TTITLE4=Ranger's Rhapsody
TTITLE5=Blues For Albert
TTITLE6=Who Is Who
TTITLE7=Boogie Craze
TTITLE8=Mirror Man Blues
TTITLE9=Rob, Rob And Rollin'
TTITLE10=Blue Profile
TTITLE11=Fur Elise Boogie
TTITLE12=Sang For My Father
TTITLE13=Blues For Kid
TTITLE14=Lock, Stock And Barral
TTITLE15=Ode To Jimmy Yancey
EXTD=
EXTT0=
EXTT1=
EXTT2=
EXTT3=
EXTT4=
EXTT5=
EXTT6=
EXTT7=
EXTT8=
EXTT9=
EXTT10=
EXTT11=
EXTT12=
EXTT13=
EXTT14=
EXTT15=
PLAYORDER=
